<svg width="853" height="438" viewBox="0 0 853 438" class="keymap" xmlns="http://www.w3.org/2000/svg" xmlns:xlink="http://www.w3.org/1999/xlink">
<defs>/* start glyphs */
<svg id="mdi:arrow-down">
<svg xmlns="http://www.w3.org/2000/svg" id="mdi-arrow-down" viewBox="0 0 24 24"><path d="M11,4H13V16L18.5,10.5L19.92,11.92L12,19.84L4.08,11.92L5.5,10.5L11,16V4Z" /></svg>
</svg>
<svg id="mdi:arrow-left">
<svg xmlns="http://www.w3.org/2000/svg" id="mdi-arrow-left" viewBox="0 0 24 24"><path d="M20,11V13H8L13.5,18.5L12.08,19.92L4.16,12L12.08,4.08L13.5,5.5L8,11H20Z" /></svg>
</svg>
<svg id="mdi:arrow-right">
<svg xmlns="http://www.w3.org/2000/svg" id="mdi-arrow-right" viewBox="0 0 24 24"><path d="M4,11V13H16L10.5,18.5L11.92,19.92L19.84,12L11.92,4.08L10.5,5.5L16,11H4Z" /></svg>
</svg>
<svg id="mdi:arrow-up">
<svg xmlns="http://www.w3.org/2000/svg" id="mdi-arrow-up" viewBox="0 0 24 24"><path d="M13,20H11V8L5.5,13.5L4.08,12.08L12,4.16L19.92,12.08L18.5,13.5L13,8V20Z" /></svg>
</svg>
<svg id="mdi:magnify">
<svg xmlns="http://www.w3.org/2000/svg" id="mdi-magnify" viewBox="0 0 24 24"><path d="M9.5,3A6.5,6.5 0 0,1 16,9.5C16,11.11 15.41,12.59 14.44,13.73L14.71,14H15.5L20.5,19L19,20.5L14,15.5V14.71L13.73,14.44C12.59,15.41 11.11,16 9.5,16A6.5,6.5 0 0,1 3,9.5A6.5,6.5 0 0,1 9.5,3M9.5,5C7,5 5,7 5,9.5C5,12 7,14 9.5,14C12,14 14,12 14,9.5C14,7 12,5 9.5,5Z" /></svg>
</svg>
<svg id="mdi:play-pause">
<svg xmlns="http://www.w3.org/2000/svg" id="mdi-play-pause" viewBox="0 0 24 24"><path d="M3,5V19L11,12M13,19H16V5H13M18,5V19H21V5" /></svg>
</svg>
<svg id="mdi:skip-next">
<svg xmlns="http://www.w3.org/2000/svg" id="mdi-skip-next" viewBox="0 0 24 24"><path d="M16,18H18V6H16M6,18L14.5,12L6,6V18Z" /></svg>
</svg>
<svg id="mdi:skip-previous">
<svg xmlns="http://www.w3.org/2000/svg" id="mdi-skip-previous" viewBox="0 0 24 24"><path d="M6,18V6H8V18H6M9.5,12L18,6V18L9.5,12Z" /></svg>
</svg>
<svg id="mdi:volume-off">
<svg xmlns="http://www.w3.org/2000/svg" id="mdi-volume-off" viewBox="0 0 24 24"><path d="M12,4L9.91,6.09L12,8.18M4.27,3L3,4.27L7.73,9H3V15H7L12,20V13.27L16.25,17.53C15.58,18.04 14.83,18.46 14,18.7V20.77C15.38,20.45 16.63,19.82 17.68,18.96L19.73,21L21,19.73L12,10.73M19,12C19,12.94 18.8,13.82 18.46,14.64L19.97,16.15C20.62,14.91 21,13.5 21,12C21,7.72 18,4.14 14,3.23V5.29C16.89,6.15 19,8.83 19,12M16.5,12C16.5,10.23 15.5,8.71 14,7.97V10.18L16.45,12.63C16.5,12.43 16.5,12.21 16.5,12Z" /></svg>
</svg>
</defs>/* end glyphs */
<style>/* inherit to force styles through use tags */
svg path {
    fill: inherit;
}

/* font and background color specifications */
svg.keymap {
    font-family: SFMono-Regular,Consolas,Liberation Mono,Menlo,monospace;
    font-size: 14px;
    font-kerning: normal;
    text-rendering: optimizeLegibility;
    fill: #24292e;
}

/* default key styling */
rect.key {
    fill: #f6f8fa;
}

rect.key, rect.combo {
    stroke: #c9cccf;
    stroke-width: 1;
}

/* default key side styling, only used is draw_key_sides is set */
rect.side {
    filter: brightness(90%);
}

/* color accent for combo boxes */
rect.combo, rect.combo-separate {
    fill: #cdf;
}

/* color accent for held keys */
rect.held, rect.combo.held {
    fill: #fdd;
}

/* color accent for ghost (optional) keys */
rect.ghost, rect.combo.ghost {
    stroke-dasharray: 4, 4;
    stroke-width: 2;
}

text {
    text-anchor: middle;
    dominant-baseline: middle;
}

/* styling for layer labels */
text.label {
    font-weight: bold;
    text-anchor: start;
    stroke: white;
    stroke-width: 4;
    paint-order: stroke;
}

/* styling for optional footer */
text.footer {
    text-anchor: end;
    dominant-baseline: auto;
    stroke: white;
    stroke-width: 4;
    paint-order: stroke;
}

/* styling for combo tap, and key hold/shifted label text */
text.combo, text.hold, text.shifted {
    font-size: 11px;
}

text.hold {
    text-anchor: middle;
    dominant-baseline: auto;
}

text.shifted {
    text-anchor: middle;
    dominant-baseline: hanging;
}

text.layer-activator {
    text-decoration: underline;
}

/* styling for hold/shifted label text in combo box */
text.combo.hold, text.combo.shifted {
    font-size: 8px;
}

/* lighter symbol for transparent keys */
text.trans {
    fill: #7b7e81;
}

/* styling for combo dendrons */
path.combo {
    stroke-width: 1;
    stroke: gray;
    fill: none;
}

/* Start Tabler Icons Cleanup */
/* cannot use height/width with glyphs */
.icon-tabler > path {
    fill: inherit;
    stroke: inherit;
    stroke-width: 2;
}
/* hide tabler's default box */
.icon-tabler > path[stroke="none"][fill="none"] {
    visibility: hidden;
}
/* End Tabler Icons Cleanup */

svg.keymap { font-family: 'JetBrains Mono'; }</style>
<g transform="translate(30, 0)" class="layer-base">
<text x="0" y="28" class="label" id="base">base</text>
<g transform="translate(0, 83)">
<g transform="translate(30, 53)" class="key keypos-0">
<rect rx="6" ry="6" x="-28" y="-28" width="57" height="57" class="key side"/>
<rect rx="4" ry="4" x="-26" y="-28" width="51" height="45" class="key"/>
</g>
<g transform="translate(92, 38)" class="key keypos-1">
<rect rx="6" ry="6" x="-28" y="-28" width="57" height="57" class="key side"/>
<rect rx="4" ry="4" x="-26" y="-28" width="51" height="45" class="key"/>
</g>
<g transform="translate(152, 30)" class="key keypos-2">
<rect rx="6" ry="6" x="-28" y="-28" width="57" height="57" class="key side"/>
<rect rx="4" ry="4" x="-26" y="-28" width="51" height="45" class="key"/>
</g>
<g transform="translate(214, 38)" class="key keypos-3">
<rect rx="6" ry="6" x="-28" y="-28" width="57" height="57" class="key side"/>
<rect rx="4" ry="4" x="-26" y="-28" width="51" height="45" class="key"/>
</g>
<g transform="translate(274, 46)" class="key keypos-4">
<rect rx="6" ry="6" x="-28" y="-28" width="57" height="57" class="key side"/>
<rect rx="4" ry="4" x="-26" y="-28" width="51" height="45" class="key"/>
</g>
<g transform="translate(518, 46)" class="key keypos-5">
<rect rx="6" ry="6" x="-28" y="-28" width="57" height="57" class="key side"/>
<rect rx="4" ry="4" x="-26" y="-28" width="51" height="45" class="key"/>
</g>
<g transform="translate(580, 38)" class="key keypos-6">
<rect rx="6" ry="6" x="-28" y="-28" width="57" height="57" class="key side"/>
<rect rx="4" ry="4" x="-26" y="-28" width="51" height="45" class="key"/>
</g>
<g transform="translate(640, 30)" class="key keypos-7">
<rect rx="6" ry="6" x="-28" y="-28" width="57" height="57" class="key side"/>
<rect rx="4" ry="4" x="-26" y="-28" width="51" height="45" class="key"/>
</g>
<g transform="translate(702, 38)" class="key keypos-8">
<rect rx="6" ry="6" x="-28" y="-28" width="57" height="57" class="key side"/>
<rect rx="4" ry="4" x="-26" y="-28" width="51" height="45" class="key"/>
</g>
<g transform="translate(762, 53)" class="key keypos-9">
<rect rx="6" ry="6" x="-28" y="-28" width="57" height="57" class="key side"/>
<rect rx="4" ry="4" x="-26" y="-28" width="51" height="45" class="key"/>
</g>
<g transform="translate(30, 114)" class="key keypos-10">
<rect rx="6" ry="6" x="-28" y="-28" width="57" height="57" class="key side"/>
<rect rx="4" ry="4" x="-26" y="-28" width="51" height="45" class="key"/>
</g>
<g transform="translate(92, 99)" class="key keypos-11">
<rect rx="6" ry="6" x="-28" y="-28" width="57" height="57" class="key side"/>
<rect rx="4" ry="4" x="-26" y="-28" width="51" height="45" class="key"/>
</g>
<g transform="translate(152, 92)" class="key keypos-12">
<rect rx="6" ry="6" x="-28" y="-28" width="57" height="57" class="key side"/>
<rect rx="4" ry="4" x="-26" y="-28" width="51" height="45" class="key"/>
</g>
<g transform="translate(214, 99)" class="key keypos-13">
<rect rx="6" ry="6" x="-28" y="-28" width="57" height="57" class="key side"/>
<rect rx="4" ry="4" x="-26" y="-28" width="51" height="45" class="key"/>
</g>
<g transform="translate(274, 107)" class="key keypos-14">
<rect rx="6" ry="6" x="-28" y="-28" width="57" height="57" class="key side"/>
<rect rx="4" ry="4" x="-26" y="-28" width="51" height="45" class="key"/>
</g>
<g transform="translate(518, 107)" class="key keypos-15">
<rect rx="6" ry="6" x="-28" y="-28" width="57" height="57" class="key side"/>
<rect rx="4" ry="4" x="-26" y="-28" width="51" height="45" class="key"/>
</g>
<g transform="translate(580, 99)" class="key keypos-16">
<rect rx="6" ry="6" x="-28" y="-28" width="57" height="57" class="key side"/>
<rect rx="4" ry="4" x="-26" y="-28" width="51" height="45" class="key"/>
</g>
<g transform="translate(640, 92)" class="key keypos-17">
<rect rx="6" ry="6" x="-28" y="-28" width="57" height="57" class="key side"/>
<rect rx="4" ry="4" x="-26" y="-28" width="51" height="45" class="key"/>
</g>
<g transform="translate(702, 99)" class="key keypos-18">
<rect rx="6" ry="6" x="-28" y="-28" width="57" height="57" class="key side"/>
<rect rx="4" ry="4" x="-26" y="-28" width="51" height="45" class="key"/>
</g>
<g transform="translate(762, 114)" class="key keypos-19">
<rect rx="6" ry="6" x="-28" y="-28" width="57" height="57" class="key side"/>
<rect rx="4" ry="4" x="-26" y="-28" width="51" height="45" class="key"/>
</g>
<g transform="translate(30, 175)" class="key keypos-20">
<rect rx="6" ry="6" x="-28" y="-28" width="57" height="57" class="key side"/>
<rect rx="4" ry="4" x="-26" y="-28" width="51" height="45" class="key"/>
</g>
<g transform="translate(92, 160)" class="key keypos-21">
<rect rx="6" ry="6" x="-28" y="-28" width="57" height="57" class="key side"/>
<rect rx="4" ry="4" x="-26" y="-28" width="51" height="45" class="key"/>
</g>
<g transform="translate(152, 152)" class="key keypos-22">
<rect rx="6" ry="6" x="-28" y="-28" width="57" height="57" class="key side"/>
<rect rx="4" ry="4" x="-26" y="-28" width="51" height="45" class="key"/>
</g>
<g transform="translate(214, 160)" class="key keypos-23">
<rect rx="6" ry="6" x="-28" y="-28" width="57" height="57" class="key side"/>
<rect rx="4" ry="4" x="-26" y="-28" width="51" height="45" class="key"/>
</g>
<g transform="translate(274, 168)" class="key keypos-24">
<rect rx="6" ry="6" x="-28" y="-28" width="57" height="57" class="key side"/>
<rect rx="4" ry="4" x="-26" y="-28" width="51" height="45" class="key"/>
</g>
<g transform="translate(518, 168)" class="key keypos-25">
<rect rx="6" ry="6" x="-28" y="-28" width="57" height="57" class="key side"/>
<rect rx="4" ry="4" x="-26" y="-28" width="51" height="45" class="key"/>
</g>
<g transform="translate(580, 160)" class="key keypos-26">
<rect rx="6" ry="6" x="-28" y="-28" width="57" height="57" class="key side"/>
<rect rx="4" ry="4" x="-26" y="-28" width="51" height="45" class="key"/>
</g>
<g transform="translate(640, 152)" class="key keypos-27">
<rect rx="6" ry="6" x="-28" y="-28" width="57" height="57" class="key side"/>
<rect rx="4" ry="4" x="-26" y="-28" width="51" height="45" class="key"/>
</g>
<g transform="translate(702, 160)" class="key keypos-28">
<rect rx="6" ry="6" x="-28" y="-28" width="57" height="57" class="key side"/>
<rect rx="4" ry="4" x="-26" y="-28" width="51" height="45" class="key"/>
</g>
<g transform="translate(762, 175)" class="key keypos-29">
<rect rx="6" ry="6" x="-28" y="-28" width="57" height="57" class="key side"/>
<rect rx="4" ry="4" x="-26" y="-28" width="51" height="45" class="key"/>
</g>
<g transform="translate(183, 223)" class="key keypos-30">
<rect rx="6" ry="6" x="-28" y="-28" width="57" height="57" class="key side"/>
<rect rx="4" ry="4" x="-26" y="-28" width="51" height="45" class="key"/>
</g>
<g transform="translate(250, 232) rotate(15.0)" class="key keypos-31">
<rect rx="6" ry="6" x="-28" y="-28" width="57" height="57" class="key side"/>
<rect rx="4" ry="4" x="-26" y="-28" width="51" height="45" class="key"/>
</g>
<g transform="translate(321, 244) rotate(30.0)" class="key keypos-32">
<rect rx="6" ry="6" x="-28" y="-44" width="57" height="88" class="key side"/>
<rect rx="4" ry="4" x="-26" y="-44" width="51" height="76" class="key"/>
</g>
<g transform="translate(472, 244) rotate(-30.0)" class="key keypos-33">
<rect rx="6" ry="6" x="-28" y="-44" width="57" height="88" class="key side"/>
<rect rx="4" ry="4" x="-26" y="-44" width="51" height="76" class="key"/>
</g>
<g transform="translate(543, 232) rotate(-15.0)" class="key keypos-34">
<rect rx="6" ry="6" x="-28" y="-28" width="57" height="57" class="key side"/>
<rect rx="4" ry="4" x="-26" y="-28" width="51" height="45" class="key"/>
</g>
<g transform="translate(610, 223)" class="key keypos-35">
<rect rx="6" ry="6" x="-28" y="-28" width="57" height="57" class="key side"/>
<rect rx="4" ry="4" x="-26" y="-28" width="51" height="45" class="key"/>
</g>
<g class="combo combopos-0">
<path d="M152,-12 h-55 a6.0,6.0 0 0 0 -6.0,6.0 v23" class="combo"/>
<path d="M152,-12 h55 a6.0,6.0 0 0 1 6.0,6.0 v23" class="combo"/>
<rect rx="6" ry="6" x="132" y="-27" width="40" height="30" class="combo"/>
<text x="152" y="-12" class="combo tap">^+A</text>
</g>
<g class="combo combopos-1">
<rect rx="6" ry="6" x="112" y="19" width="20" height="30" class="combo"/>
<text x="122" y="34" class="combo tap">^+Z</text>
</g>
<g class="combo combopos-2">
<rect rx="6" ry="6" x="173" y="19" width="20" height="30" class="combo"/>
<text x="183" y="34" class="combo tap">^+⇧+Z</text>
</g>
<g class="combo combopos-3">
<rect rx="6" ry="6" x="173" y="80" width="20" height="30" class="combo"/>
<text x="183" y="95" class="combo tap">Tab</text>
<text x="183" y="108" class="combo hold"><tspan style="font-size: 83%">⇧+Ctrl</tspan></text>
</g>
<g class="combo combopos-4">
<rect rx="6" ry="6" x="112" y="80" width="20" height="30" class="combo"/>
<text x="122" y="95" class="combo tap">Esc</text>
<text x="122" y="108" class="combo hold">⇧+Alt</text>
</g>
<g class="combo combopos-5">
<path d="M152,192 h-55 a6.0,6.0 0 0 1 -6.0,-6.0 v-5" class="combo"/>
<path d="M152,192 h55 a6.0,6.0 0 0 0 6.0,-6.0 v-5" class="combo"/>
<rect rx="6" ry="6" x="132" y="177" width="40" height="30" class="combo"/>
<text x="152" y="192" class="combo tap">^+X</text>
</g>
<g class="combo combopos-6">
<rect rx="6" ry="6" x="112" y="141" width="20" height="30" class="combo"/>
<text x="122" y="156" class="combo tap">^+C</text>
</g>
<g class="combo combopos-7">
<rect rx="6" ry="6" x="173" y="141" width="20" height="30" class="combo"/>
<text x="183" y="156" class="combo tap">^+V</text>
</g>
<g class="combo combopos-8">
<rect rx="6" ry="6" x="600" y="19" width="20" height="30" class="combo"/>
<text x="610" y="34" class="combo tap">[</text>
</g>
<g class="combo combopos-9">
<rect rx="6" ry="6" x="661" y="19" width="20" height="30" class="combo"/>
<text x="671" y="34" class="combo tap">]</text>
</g>
<g class="combo combopos-10">
<path d="M640,-12 h-55 a6.0,6.0 0 0 0 -6.0,6.0 v23" class="combo"/>
<path d="M640,-12 h55 a6.0,6.0 0 0 1 6.0,6.0 v23" class="combo"/>
<rect rx="6" ry="6" x="610" y="-27" width="60" height="30" class="combo"/>
<text x="640" y="-12" class="combo tap"><tspan style="font-size: 83%">()=&gt;{}</tspan></text>
</g>
<g class="combo combopos-11">
<rect rx="6" ry="6" x="600" y="80" width="20" height="30" class="combo"/>
<text x="610" y="95" class="combo tap">(</text>
<text x="610" y="108" class="combo hold"><tspan style="font-size: 83%">⇧+Ctrl</tspan></text>
<text x="610" y="82" class="combo shifted">&lt;</text>
</g>
<g class="combo combopos-12">
<rect rx="6" ry="6" x="661" y="80" width="20" height="30" class="combo"/>
<text x="671" y="95" class="combo tap">)</text>
<text x="671" y="108" class="combo hold">⇧+Alt</text>
<text x="671" y="82" class="combo shifted">&gt;</text>
</g>
<g class="combo combopos-13">
<rect rx="6" ry="6" x="600" y="141" width="20" height="30" class="combo"/>
<text x="610" y="156" class="combo tap">{</text>
</g>
<g class="combo combopos-14">
<rect rx="6" ry="6" x="661" y="141" width="20" height="30" class="combo"/>
<text x="671" y="156" class="combo tap">}</text>
</g>
<g class="combo combopos-15">
<path d="M640,192 h-55 a6.0,6.0 0 0 1 -6.0,-6.0 v-5" class="combo"/>
<path d="M640,192 h55 a6.0,6.0 0 0 0 6.0,-6.0 v-5" class="combo"/>
<rect rx="6" ry="6" x="620" y="177" width="40" height="30" class="combo"/>
<text x="640" y="192" class="combo tap">()=&gt;</text>
</g>
<g class="combo combopos-16">
<rect rx="6" ry="6" x="82" y="54" width="20" height="30" class="combo"/>
<text x="92" y="69" class="combo tap">@</text>
</g>
<g class="combo combopos-17">
<rect rx="6" ry="6" x="142" y="46" width="20" height="30" class="combo"/>
<text x="152" y="61" class="combo tap">#</text>
</g>
<g class="combo combopos-18">
<rect rx="6" ry="6" x="204" y="54" width="20" height="30" class="combo"/>
<text x="214" y="69" class="combo tap">$</text>
</g>
<g class="combo combopos-19">
<rect rx="6" ry="6" x="264" y="61" width="20" height="30" class="combo"/>
<text x="274" y="76" class="combo tap">%</text>
</g>
<g class="combo combopos-20">
<rect rx="6" ry="6" x="82" y="115" width="20" height="30" class="combo"/>
<text x="92" y="130" class="combo tap">`</text>
</g>
<g class="combo combopos-21">
<rect rx="6" ry="6" x="142" y="107" width="20" height="30" class="combo"/>
<text x="152" y="122" class="combo tap">\</text>
</g>
<g class="combo combopos-22">
<rect rx="6" ry="6" x="204" y="115" width="20" height="30" class="combo"/>
<text x="214" y="130" class="combo tap">=</text>
</g>
<g class="combo combopos-23">
<rect rx="6" ry="6" x="264" y="122" width="20" height="30" class="combo"/>
<text x="274" y="137" class="combo tap">~</text>
</g>
<g class="combo combopos-24">
<rect rx="6" ry="6" x="508" y="61" width="20" height="30" class="combo"/>
<text x="518" y="76" class="combo tap">^</text>
</g>
<g class="combo combopos-25">
<rect rx="6" ry="6" x="570" y="54" width="20" height="30" class="combo"/>
<text x="580" y="69" class="combo tap">&amp;</text>
</g>
<g class="combo combopos-26">
<rect rx="6" ry="6" x="630" y="46" width="20" height="30" class="combo"/>
<text x="640" y="61" class="combo tap">*</text>
</g>
<g class="combo combopos-27">
<rect rx="6" ry="6" x="692" y="54" width="20" height="30" class="combo"/>
<text x="702" y="69" class="combo tap">+</text>
</g>
<g class="combo combopos-28">
<rect rx="6" ry="6" x="508" y="122" width="20" height="30" class="combo"/>
<text x="518" y="137" class="combo tap">_</text>
</g>
<g class="combo combopos-29">
<rect rx="6" ry="6" x="570" y="115" width="20" height="30" class="combo"/>
<text x="580" y="130" class="combo tap">|</text>
</g>
<g class="combo combopos-30">
<rect rx="6" ry="6" x="630" y="107" width="20" height="30" class="combo"/>
<text x="640" y="122" class="combo tap">/</text>
</g>
<g class="combo combopos-31">
<rect rx="6" ry="6" x="692" y="115" width="20" height="30" class="combo"/>
<text x="702" y="130" class="combo tap">_</text>
</g>
</g>
</g>
</svg>
